<mxfile modified="2023-11-15T15:44:20.555Z" host="app.diagrams.net" agent="Mozilla/5.0 (Windows NT 10.0; Win64; x64) AppleWebKit/537.36 (KHTML, like Gecko) Chrome/119.0.0.0 Safari/537.36" etag="S_V1spv405ZccqPl-LBA" version="22.1.1" type="github">
  <diagram id="Ht1M8jgEwFfnCIfOTk4-" name="Page-1">
    <mxGraphModel dx="2068" dy="1695" grid="1" gridSize="10" guides="1" tooltips="1" connect="1" arrows="1" fold="1" page="1" pageScale="1" pageWidth="1169" pageHeight="827" math="0" shadow="0">
      <root>
        <mxCell id="0" />
        <mxCell id="1" parent="0" />
        <mxCell id="UEzPUAAOIrF-is8g5C7q-206" value="AWS pasarela1&amp;nbsp;" style="points=[[0,0],[0.25,0],[0.5,0],[0.75,0],[1,0],[1,0.25],[1,0.5],[1,0.75],[1,1],[0.75,1],[0.5,1],[0.25,1],[0,1],[0,0.75],[0,0.5],[0,0.25]];outlineConnect=0;gradientColor=none;html=1;whiteSpace=wrap;fontSize=12;fontStyle=0;shape=mxgraph.aws4.group;grIcon=mxgraph.aws4.group_aws_cloud_alt;strokeColor=#232F3E;fillColor=#ffffff;verticalAlign=top;align=left;spacingLeft=30;fontColor=#232F3E;dashed=0;labelBackgroundColor=#ffffff;container=1;pointerEvents=0;collapsible=0;recursiveResize=0;" parent="1" vertex="1">
          <mxGeometry x="230.5" y="517.5" width="610" height="300" as="geometry" />
        </mxCell>
        <mxCell id="QpUBDbhD9ADxx_7sT5zD-22" value="" style="sketch=0;outlineConnect=0;fontColor=#232F3E;gradientColor=none;fillColor=#E7157B;strokeColor=none;dashed=0;verticalLabelPosition=bottom;verticalAlign=top;align=center;html=1;fontSize=12;fontStyle=0;aspect=fixed;pointerEvents=1;shape=mxgraph.aws4.endpoint;" vertex="1" parent="UEzPUAAOIrF-is8g5C7q-206">
          <mxGeometry x="199.5" y="42.5" width="78" height="78" as="geometry" />
        </mxCell>
        <mxCell id="QpUBDbhD9ADxx_7sT5zD-1" value="AWS pasarela2" style="points=[[0,0],[0.25,0],[0.5,0],[0.75,0],[1,0],[1,0.25],[1,0.5],[1,0.75],[1,1],[0.75,1],[0.5,1],[0.25,1],[0,1],[0,0.75],[0,0.5],[0,0.25]];outlineConnect=0;gradientColor=none;html=1;whiteSpace=wrap;fontSize=12;fontStyle=0;shape=mxgraph.aws4.group;grIcon=mxgraph.aws4.group_aws_cloud_alt;strokeColor=#232F3E;fillColor=#ffffff;verticalAlign=top;align=left;spacingLeft=30;fontColor=#232F3E;dashed=0;labelBackgroundColor=#ffffff;container=1;pointerEvents=0;collapsible=0;recursiveResize=0;" vertex="1" parent="1">
          <mxGeometry x="860" y="517.5" width="610" height="300" as="geometry" />
        </mxCell>
        <mxCell id="QpUBDbhD9ADxx_7sT5zD-23" value="" style="sketch=0;outlineConnect=0;fontColor=#232F3E;gradientColor=none;fillColor=#E7157B;strokeColor=none;dashed=0;verticalLabelPosition=bottom;verticalAlign=top;align=center;html=1;fontSize=12;fontStyle=0;aspect=fixed;pointerEvents=1;shape=mxgraph.aws4.endpoint;" vertex="1" parent="QpUBDbhD9ADxx_7sT5zD-1">
          <mxGeometry x="210" y="42.5" width="78" height="78" as="geometry" />
        </mxCell>
        <mxCell id="QpUBDbhD9ADxx_7sT5zD-10" value="Amazon API&lt;br&gt;Gateway&lt;br&gt;" style="outlineConnect=0;fontColor=#232F3E;gradientColor=#945DF2;gradientDirection=north;fillColor=#5A30B5;strokeColor=#ffffff;dashed=0;verticalLabelPosition=bottom;verticalAlign=top;align=center;html=1;fontSize=12;fontStyle=0;aspect=fixed;shape=mxgraph.aws4.resourceIcon;resIcon=mxgraph.aws4.api_gateway;labelBackgroundColor=#ffffff;" vertex="1" parent="1">
          <mxGeometry x="90" y="52" width="78" height="78" as="geometry" />
        </mxCell>
        <mxCell id="QpUBDbhD9ADxx_7sT5zD-13" value="AWS Compensar" style="points=[[0,0],[0.25,0],[0.5,0],[0.75,0],[1,0],[1,0.25],[1,0.5],[1,0.75],[1,1],[0.75,1],[0.5,1],[0.25,1],[0,1],[0,0.75],[0,0.5],[0,0.25]];outlineConnect=0;gradientColor=none;html=1;whiteSpace=wrap;fontSize=12;fontStyle=0;shape=mxgraph.aws4.group;grIcon=mxgraph.aws4.group_aws_cloud_alt;strokeColor=#232F3E;fillColor=#ffffff;verticalAlign=top;align=left;spacingLeft=30;fontColor=#232F3E;dashed=0;labelBackgroundColor=#ffffff;container=1;pointerEvents=0;collapsible=0;recursiveResize=0;" vertex="1" parent="1">
          <mxGeometry x="250" y="-320" width="1330" height="810" as="geometry" />
        </mxCell>
        <mxCell id="QpUBDbhD9ADxx_7sT5zD-14" value="VPC" style="sketch=0;outlineConnect=0;gradientColor=none;html=1;whiteSpace=wrap;fontSize=12;fontStyle=0;shape=mxgraph.aws4.group;grIcon=mxgraph.aws4.group_vpc;strokeColor=#879196;fillColor=none;verticalAlign=top;align=left;spacingLeft=30;fontColor=#879196;dashed=0;" vertex="1" parent="QpUBDbhD9ADxx_7sT5zD-13">
          <mxGeometry x="130" y="120" width="1070" height="630" as="geometry" />
        </mxCell>
        <mxCell id="QpUBDbhD9ADxx_7sT5zD-45" style="edgeStyle=orthogonalEdgeStyle;rounded=0;orthogonalLoop=1;jettySize=auto;html=1;" edge="1" parent="QpUBDbhD9ADxx_7sT5zD-13" source="QpUBDbhD9ADxx_7sT5zD-11" target="QpUBDbhD9ADxx_7sT5zD-19">
          <mxGeometry relative="1" as="geometry">
            <Array as="points">
              <mxPoint x="820" y="560" />
              <mxPoint x="820" y="229" />
            </Array>
          </mxGeometry>
        </mxCell>
        <mxCell id="QpUBDbhD9ADxx_7sT5zD-46" style="edgeStyle=orthogonalEdgeStyle;rounded=0;orthogonalLoop=1;jettySize=auto;html=1;" edge="1" parent="QpUBDbhD9ADxx_7sT5zD-13" source="QpUBDbhD9ADxx_7sT5zD-11" target="QpUBDbhD9ADxx_7sT5zD-20">
          <mxGeometry relative="1" as="geometry" />
        </mxCell>
        <mxCell id="QpUBDbhD9ADxx_7sT5zD-11" value="API" style="sketch=0;points=[[0,0,0],[0.25,0,0],[0.5,0,0],[0.75,0,0],[1,0,0],[0,1,0],[0.25,1,0],[0.5,1,0],[0.75,1,0],[1,1,0],[0,0.25,0],[0,0.5,0],[0,0.75,0],[1,0.25,0],[1,0.5,0],[1,0.75,0]];outlineConnect=0;fontColor=#232F3E;fillColor=#ED7100;strokeColor=#ffffff;dashed=0;verticalLabelPosition=bottom;verticalAlign=top;align=center;html=1;fontSize=12;fontStyle=0;aspect=fixed;shape=mxgraph.aws4.resourceIcon;resIcon=mxgraph.aws4.ecs;" vertex="1" parent="QpUBDbhD9ADxx_7sT5zD-13">
          <mxGeometry x="604.5" y="520" width="80" height="80" as="geometry" />
        </mxCell>
        <mxCell id="QpUBDbhD9ADxx_7sT5zD-48" style="edgeStyle=orthogonalEdgeStyle;rounded=0;orthogonalLoop=1;jettySize=auto;html=1;" edge="1" parent="QpUBDbhD9ADxx_7sT5zD-13" source="QpUBDbhD9ADxx_7sT5zD-15" target="QpUBDbhD9ADxx_7sT5zD-19">
          <mxGeometry relative="1" as="geometry" />
        </mxCell>
        <mxCell id="QpUBDbhD9ADxx_7sT5zD-15" value="" style="outlineConnect=0;dashed=0;verticalLabelPosition=bottom;verticalAlign=top;align=center;html=1;shape=mxgraph.aws3.lambda_function;fillColor=#F58534;gradientColor=none;" vertex="1" parent="QpUBDbhD9ADxx_7sT5zD-13">
          <mxGeometry x="610" y="160" width="69" height="72" as="geometry" />
        </mxCell>
        <mxCell id="QpUBDbhD9ADxx_7sT5zD-38" style="edgeStyle=orthogonalEdgeStyle;rounded=0;orthogonalLoop=1;jettySize=auto;html=1;" edge="1" parent="QpUBDbhD9ADxx_7sT5zD-13" source="QpUBDbhD9ADxx_7sT5zD-16" target="QpUBDbhD9ADxx_7sT5zD-21">
          <mxGeometry relative="1" as="geometry" />
        </mxCell>
        <mxCell id="QpUBDbhD9ADxx_7sT5zD-39" value="" style="edgeStyle=orthogonalEdgeStyle;rounded=0;orthogonalLoop=1;jettySize=auto;html=1;" edge="1" parent="QpUBDbhD9ADxx_7sT5zD-13" source="QpUBDbhD9ADxx_7sT5zD-16" target="QpUBDbhD9ADxx_7sT5zD-17">
          <mxGeometry relative="1" as="geometry" />
        </mxCell>
        <mxCell id="QpUBDbhD9ADxx_7sT5zD-44" style="edgeStyle=orthogonalEdgeStyle;rounded=0;orthogonalLoop=1;jettySize=auto;html=1;" edge="1" parent="QpUBDbhD9ADxx_7sT5zD-13" source="QpUBDbhD9ADxx_7sT5zD-16" target="QpUBDbhD9ADxx_7sT5zD-34">
          <mxGeometry relative="1" as="geometry">
            <Array as="points">
              <mxPoint x="259" y="660" />
            </Array>
          </mxGeometry>
        </mxCell>
        <mxCell id="QpUBDbhD9ADxx_7sT5zD-16" value="" style="sketch=0;points=[[0,0,0],[0.25,0,0],[0.5,0,0],[0.75,0,0],[1,0,0],[0,1,0],[0.25,1,0],[0.5,1,0],[0.75,1,0],[1,1,0],[0,0.25,0],[0,0.5,0],[0,0.75,0],[1,0.25,0],[1,0.5,0],[1,0.75,0]];outlineConnect=0;fontColor=#232F3E;fillColor=#DD344C;strokeColor=#ffffff;dashed=0;verticalLabelPosition=bottom;verticalAlign=top;align=center;html=1;fontSize=12;fontStyle=0;aspect=fixed;shape=mxgraph.aws4.resourceIcon;resIcon=mxgraph.aws4.amplify;" vertex="1" parent="QpUBDbhD9ADxx_7sT5zD-13">
          <mxGeometry x="220" y="369" width="78" height="78" as="geometry" />
        </mxCell>
        <mxCell id="QpUBDbhD9ADxx_7sT5zD-41" style="edgeStyle=orthogonalEdgeStyle;rounded=0;orthogonalLoop=1;jettySize=auto;html=1;" edge="1" parent="QpUBDbhD9ADxx_7sT5zD-13" source="QpUBDbhD9ADxx_7sT5zD-17" target="QpUBDbhD9ADxx_7sT5zD-24">
          <mxGeometry relative="1" as="geometry" />
        </mxCell>
        <mxCell id="QpUBDbhD9ADxx_7sT5zD-17" value="" style="outlineConnect=0;dashed=0;verticalLabelPosition=bottom;verticalAlign=top;align=center;html=1;shape=mxgraph.aws3.classic_load_balancer;fillColor=#F58534;gradientColor=none;" vertex="1" parent="QpUBDbhD9ADxx_7sT5zD-13">
          <mxGeometry x="400" y="369" width="69" height="72" as="geometry" />
        </mxCell>
        <mxCell id="QpUBDbhD9ADxx_7sT5zD-19" value="Amazon&lt;br&gt;DynamoDB&lt;br&gt;" style="outlineConnect=0;fontColor=#232F3E;gradientColor=#4D72F3;gradientDirection=north;fillColor=#3334B9;strokeColor=#ffffff;dashed=0;verticalLabelPosition=bottom;verticalAlign=top;align=center;html=1;fontSize=12;fontStyle=0;aspect=fixed;shape=mxgraph.aws4.resourceIcon;resIcon=mxgraph.aws4.dynamodb;labelBackgroundColor=#ffffff;spacingTop=5;" vertex="1" parent="QpUBDbhD9ADxx_7sT5zD-13">
          <mxGeometry x="968.0000000000002" y="190" width="78" height="78" as="geometry" />
        </mxCell>
        <mxCell id="QpUBDbhD9ADxx_7sT5zD-20" value="" style="sketch=0;outlineConnect=0;fontColor=#232F3E;gradientColor=none;fillColor=#C925D1;strokeColor=none;dashed=0;verticalLabelPosition=bottom;verticalAlign=top;align=center;html=1;fontSize=12;fontStyle=0;aspect=fixed;pointerEvents=1;shape=mxgraph.aws4.rds_instance;" vertex="1" parent="QpUBDbhD9ADxx_7sT5zD-13">
          <mxGeometry x="980" y="350" width="78" height="78" as="geometry" />
        </mxCell>
        <mxCell id="QpUBDbhD9ADxx_7sT5zD-21" value="Amazon &lt;br&gt;Cognito" style="outlineConnect=0;fontColor=#232F3E;gradientColor=#F54749;gradientDirection=north;fillColor=#C7131F;strokeColor=#ffffff;dashed=0;verticalLabelPosition=bottom;verticalAlign=top;align=center;html=1;fontSize=12;fontStyle=0;aspect=fixed;shape=mxgraph.aws4.resourceIcon;resIcon=mxgraph.aws4.cognito;labelBackgroundColor=#ffffff;" vertex="1" parent="QpUBDbhD9ADxx_7sT5zD-13">
          <mxGeometry x="198" y="180" width="78" height="78" as="geometry" />
        </mxCell>
        <mxCell id="QpUBDbhD9ADxx_7sT5zD-24" value="" style="outlineConnect=0;dashed=0;verticalLabelPosition=bottom;verticalAlign=top;align=center;html=1;shape=mxgraph.aws3.elastic_beanstalk;fillColor=#F58534;gradientColor=none;" vertex="1" parent="QpUBDbhD9ADxx_7sT5zD-13">
          <mxGeometry x="620" y="300" width="67.5" height="93" as="geometry" />
        </mxCell>
        <mxCell id="QpUBDbhD9ADxx_7sT5zD-29" value="Amazon&lt;br&gt;CloudWatch&lt;br&gt;" style="outlineConnect=0;fontColor=#232F3E;gradientColor=#F34482;gradientDirection=north;fillColor=#BC1356;strokeColor=#ffffff;dashed=0;verticalLabelPosition=bottom;verticalAlign=top;align=center;html=1;fontSize=12;fontStyle=0;aspect=fixed;shape=mxgraph.aws4.resourceIcon;resIcon=mxgraph.aws4.cloudwatch;labelBackgroundColor=#ffffff;" vertex="1" parent="QpUBDbhD9ADxx_7sT5zD-13">
          <mxGeometry x="1048.0000000000002" y="620" width="78" height="78" as="geometry" />
        </mxCell>
        <mxCell id="QpUBDbhD9ADxx_7sT5zD-31" value="IAM Roles" style="outlineConnect=0;fontColor=#232F3E;gradientColor=none;fillColor=#C7131F;strokeColor=none;dashed=0;verticalLabelPosition=bottom;verticalAlign=top;align=center;html=1;fontSize=12;fontStyle=0;aspect=fixed;pointerEvents=1;shape=mxgraph.aws4.role;labelBackgroundColor=#ffffff;" vertex="1" parent="QpUBDbhD9ADxx_7sT5zD-13">
          <mxGeometry x="910.0000000000002" y="640" width="78" height="44" as="geometry" />
        </mxCell>
        <mxCell id="QpUBDbhD9ADxx_7sT5zD-33" value="" style="image;sketch=0;aspect=fixed;html=1;points=[];align=center;fontSize=12;image=img/lib/mscae/Cache_Redis_Product.svg;" vertex="1" parent="QpUBDbhD9ADxx_7sT5zD-13">
          <mxGeometry x="420" y="174.8" width="80" height="67.2" as="geometry" />
        </mxCell>
        <mxCell id="QpUBDbhD9ADxx_7sT5zD-32" value="" style="sketch=0;points=[[0,0,0],[0.25,0,0],[0.5,0,0],[0.75,0,0],[1,0,0],[0,1,0],[0.25,1,0],[0.5,1,0],[0.75,1,0],[1,1,0],[0,0.25,0],[0,0.5,0],[0,0.75,0],[1,0.25,0],[1,0.5,0],[1,0.75,0]];outlineConnect=0;fontColor=#232F3E;fillColor=#8C4FFF;strokeColor=#ffffff;dashed=0;verticalLabelPosition=bottom;verticalAlign=top;align=center;html=1;fontSize=12;fontStyle=0;aspect=fixed;shape=mxgraph.aws4.resourceIcon;resIcon=mxgraph.aws4.cloudfront;" vertex="1" parent="QpUBDbhD9ADxx_7sT5zD-13">
          <mxGeometry x="80" y="372" width="78" height="78" as="geometry" />
        </mxCell>
        <mxCell id="QpUBDbhD9ADxx_7sT5zD-34" value="" style="sketch=0;outlineConnect=0;fontColor=#232F3E;gradientColor=none;fillColor=#7AA116;strokeColor=none;dashed=0;verticalLabelPosition=bottom;verticalAlign=top;align=center;html=1;fontSize=12;fontStyle=0;aspect=fixed;pointerEvents=1;shape=mxgraph.aws4.bucket;" vertex="1" parent="QpUBDbhD9ADxx_7sT5zD-13">
          <mxGeometry x="400" y="640" width="75" height="78" as="geometry" />
        </mxCell>
        <mxCell id="QpUBDbhD9ADxx_7sT5zD-35" value="" style="sketch=0;points=[[0,0,0],[0.25,0,0],[0.5,0,0],[0.75,0,0],[1,0,0],[0,1,0],[0.25,1,0],[0.5,1,0],[0.75,1,0],[1,1,0],[0,0.25,0],[0,0.5,0],[0,0.75,0],[1,0.25,0],[1,0.5,0],[1,0.75,0]];outlineConnect=0;fontColor=#232F3E;fillColor=#DD344C;strokeColor=#ffffff;dashed=0;verticalLabelPosition=bottom;verticalAlign=top;align=center;html=1;fontSize=12;fontStyle=0;aspect=fixed;shape=mxgraph.aws4.resourceIcon;resIcon=mxgraph.aws4.secrets_manager;" vertex="1" parent="QpUBDbhD9ADxx_7sT5zD-13">
          <mxGeometry x="780" y="640" width="78" height="78" as="geometry" />
        </mxCell>
        <mxCell id="QpUBDbhD9ADxx_7sT5zD-37" style="edgeStyle=orthogonalEdgeStyle;rounded=0;orthogonalLoop=1;jettySize=auto;html=1;entryX=0;entryY=0.5;entryDx=0;entryDy=0;entryPerimeter=0;" edge="1" parent="QpUBDbhD9ADxx_7sT5zD-13" source="QpUBDbhD9ADxx_7sT5zD-32" target="QpUBDbhD9ADxx_7sT5zD-16">
          <mxGeometry relative="1" as="geometry" />
        </mxCell>
        <mxCell id="QpUBDbhD9ADxx_7sT5zD-40" style="edgeStyle=orthogonalEdgeStyle;rounded=0;orthogonalLoop=1;jettySize=auto;html=1;entryX=0;entryY=0.75;entryDx=0;entryDy=0;entryPerimeter=0;" edge="1" parent="QpUBDbhD9ADxx_7sT5zD-13" source="QpUBDbhD9ADxx_7sT5zD-17" target="QpUBDbhD9ADxx_7sT5zD-11">
          <mxGeometry relative="1" as="geometry" />
        </mxCell>
        <mxCell id="QpUBDbhD9ADxx_7sT5zD-42" style="edgeStyle=orthogonalEdgeStyle;rounded=0;orthogonalLoop=1;jettySize=auto;html=1;entryX=0;entryY=0.5;entryDx=0;entryDy=0;entryPerimeter=0;" edge="1" parent="QpUBDbhD9ADxx_7sT5zD-13" source="QpUBDbhD9ADxx_7sT5zD-17" target="QpUBDbhD9ADxx_7sT5zD-15">
          <mxGeometry relative="1" as="geometry" />
        </mxCell>
        <mxCell id="QpUBDbhD9ADxx_7sT5zD-47" style="edgeStyle=orthogonalEdgeStyle;rounded=0;orthogonalLoop=1;jettySize=auto;html=1;entryX=0.5;entryY=0;entryDx=0;entryDy=0;entryPerimeter=0;" edge="1" parent="QpUBDbhD9ADxx_7sT5zD-13" source="QpUBDbhD9ADxx_7sT5zD-24" target="QpUBDbhD9ADxx_7sT5zD-11">
          <mxGeometry relative="1" as="geometry" />
        </mxCell>
        <mxCell id="QpUBDbhD9ADxx_7sT5zD-36" style="edgeStyle=orthogonalEdgeStyle;rounded=0;orthogonalLoop=1;jettySize=auto;html=1;entryX=0;entryY=0.5;entryDx=0;entryDy=0;entryPerimeter=0;" edge="1" parent="1" source="QpUBDbhD9ADxx_7sT5zD-10" target="QpUBDbhD9ADxx_7sT5zD-32">
          <mxGeometry relative="1" as="geometry" />
        </mxCell>
        <mxCell id="QpUBDbhD9ADxx_7sT5zD-49" style="edgeStyle=orthogonalEdgeStyle;rounded=0;orthogonalLoop=1;jettySize=auto;html=1;" edge="1" parent="1" source="QpUBDbhD9ADxx_7sT5zD-11" target="QpUBDbhD9ADxx_7sT5zD-22">
          <mxGeometry relative="1" as="geometry">
            <Array as="points">
              <mxPoint x="895" y="460" />
              <mxPoint x="469" y="460" />
            </Array>
          </mxGeometry>
        </mxCell>
        <mxCell id="QpUBDbhD9ADxx_7sT5zD-50" style="edgeStyle=orthogonalEdgeStyle;rounded=0;orthogonalLoop=1;jettySize=auto;html=1;" edge="1" parent="1" source="QpUBDbhD9ADxx_7sT5zD-11" target="QpUBDbhD9ADxx_7sT5zD-23">
          <mxGeometry relative="1" as="geometry">
            <Array as="points">
              <mxPoint x="895" y="460" />
              <mxPoint x="1109" y="460" />
            </Array>
          </mxGeometry>
        </mxCell>
      </root>
    </mxGraphModel>
  </diagram>
</mxfile>
